<svg xmlns="http://www.w3.org/2000/svg" width="800" height="600" viewBox="0 0 800 600" fill="none">
  <rect width="800" height="600" fill="#0A0A0F"/>
  <rect x="200" y="80" width="400" height="440" fill="#1A1A22" stroke="#27272A" stroke-width="2"/>
  <g opacity="0.4">
    <line x1="280" y1="80" x2="280" y2="520" stroke="#27272A" stroke-width="1"/>
    <line x1="360" y1="80" x2="360" y2="520" stroke="#27272A" stroke-width="1"/>
    <line x1="440" y1="80" x2="440" y2="520" stroke="#27272A" stroke-width="1"/>
    <line x1="520" y1="80" x2="520" y2="520" stroke="#27272A" stroke-width="1"/>
    <line x1="200" y1="160" x2="600" y2="160" stroke="#27272A" stroke-width="1"/>
    <line x1="200" y1="240" x2="600" y2="240" stroke="#27272A" stroke-width="1"/>
    <line x1="200" y1="320" x2="600" y2="320" stroke="#27272A" stroke-width="1"/>
    <line x1="200" y1="400" x2="600" y2="400" stroke="#27272A" stroke-width="1"/>
  </g>
  <rect x="240" y="120" width="80" height="60" fill="#2563EB" opacity="0.3"/>
  <rect x="400" y="200" width="80" height="60" fill="#2563EB" opacity="0.5"/>
  <rect x="320" y="280" width="80" height="60" fill="#2563EB" opacity="0.25"/>
  <rect x="480" y="360" width="80" height="60" fill="#2563EB" opacity="0.4"/>
  <rect x="120" y="440" width="560" height="80" fill="#111118" stroke="#27272A" stroke-width="2"/>
  <rect x="360" y="470" width="80" height="50" fill="#1A1A22" stroke="#27272A" stroke-width="1"/>
  <path d="M200 80 L250 40 L550 40 L600 80" stroke="#27272A" stroke-width="2" fill="none"/>
  <circle cx="650" cy="120" r="40" fill="#2563EB" opacity="0.1"/>
  <circle cx="680" cy="150" r="25" fill="#2563EB" opacity="0.15"/>
</svg>
