<svg xmlns="http://www.w3.org/2000/svg" width="800" height="400" viewBox="0 0 800 400" fill="none">
  <rect width="800" height="400" fill="#111118"/>
  <g opacity="0.3">
    <line x1="0" y1="50" x2="800" y2="50" stroke="#27272A" stroke-width="1"/>
    <line x1="0" y1="100" x2="800" y2="100" stroke="#27272A" stroke-width="1"/>
    <line x1="0" y1="150" x2="800" y2="150" stroke="#27272A" stroke-width="1"/>
    <line x1="0" y1="200" x2="800" y2="200" stroke="#27272A" stroke-width="1"/>
    <line x1="0" y1="250" x2="800" y2="250" stroke="#27272A" stroke-width="1"/>
    <line x1="0" y1="300" x2="800" y2="300" stroke="#27272A" stroke-width="1"/>
    <line x1="0" y1="350" x2="800" y2="350" stroke="#27272A" stroke-width="1"/>
    <line x1="100" y1="0" x2="100" y2="400" stroke="#27272A" stroke-width="1"/>
    <line x1="200" y1="0" x2="200" y2="400" stroke="#27272A" stroke-width="1"/>
    <line x1="300" y1="0" x2="300" y2="400" stroke="#27272A" stroke-width="1"/>
    <line x1="400" y1="0" x2="400" y2="400" stroke="#27272A" stroke-width="1"/>
    <line x1="500" y1="0" x2="500" y2="400" stroke="#27272A" stroke-width="1"/>
    <line x1="600" y1="0" x2="600" y2="400" stroke="#27272A" stroke-width="1"/>
    <line x1="700" y1="0" x2="700" y2="400" stroke="#27272A" stroke-width="1"/>
  </g>
  <circle cx="400" cy="200" r="60" fill="#2563EB" opacity="0.15"/>
  <circle cx="400" cy="200" r="40" fill="#2563EB" opacity="0.2"/>
  <path d="M400 160 L400 200 L430 220" stroke="#2563EB" stroke-width="2" fill="none"/>
  <circle cx="400" cy="200" r="8" fill="#2563EB"/>
  <text x="400" y="280" text-anchor="middle" font-family="Inter, sans-serif" font-size="14" fill="#A1A1AA">Улаанбаатар, Монгол</text>
</svg>
